<?xml version="1.0" encoding="UTF-8"?>
<svg width="1035" height="796" viewBox="0 0 1035 796" fill="none" xmlns="http://www.w3.org/2000/svg">
<rect x="14.3325" y="13.429" width="1007.14" height="769.142" rx="58.1924" fill="white"/>
<rect x="14.3325" y="13.429" width="1007.14" height="769.142" rx="58.1924" stroke="#7D67EB" stroke-width="26.858"/>
<path d="M146.54 237.972C136.898 237.972 128.68 235.507 121.886 230.576C115.202 225.645 110.052 218.742 106.436 209.867C102.93 200.882 101.177 190.472 101.177 178.638C101.177 166.695 102.93 156.286 106.436 147.41C110.052 138.425 115.257 131.467 122.05 126.536C128.844 121.496 137.007 118.976 146.54 118.976C158.922 118.976 168.783 122.373 176.125 129.166C183.466 135.85 187.74 144.945 188.945 156.45H169.715C168.729 150.423 166.263 145.438 162.319 141.493C158.484 137.439 153.169 135.412 146.376 135.412C137.719 135.412 130.981 139.247 126.159 146.917C121.338 154.587 118.928 165.161 118.928 178.638C118.928 192.006 121.338 202.525 126.159 210.196C130.981 217.756 137.719 221.536 146.376 221.536C153.388 221.536 158.757 219.728 162.483 216.112C166.208 212.387 168.619 207.511 169.715 201.484H188.945C187.192 212.77 182.754 221.701 175.632 228.275C168.51 234.74 158.812 237.972 146.54 237.972ZM203.673 236V120.948H277.142V136.562H221.095V170.092H272.211V185.542H221.095V220.386H277.142V236H203.673ZM296.472 236V120.948H334.11C343.095 120.948 350.492 122.482 356.299 125.55C362.216 128.618 366.599 132.782 369.448 138.042C372.406 143.192 373.886 149.054 373.886 155.628C373.886 163.079 371.968 169.708 368.133 175.516C364.407 181.213 358.655 185.377 350.875 188.007L375.036 236H354.82L332.796 190.472H313.894V236H296.472ZM313.894 174.694H333.124C341.014 174.694 346.766 172.941 350.382 169.434C354.108 165.928 355.97 161.326 355.97 155.628C355.97 149.821 354.162 145.219 350.546 141.822C346.931 138.316 341.068 136.562 332.96 136.562H313.894V174.694ZM418.363 236V136.562H387.463V120.948H466.685V136.562H435.785V236H418.363ZM487.001 236V220.55H511.984V136.398H487.33V120.948H554.06V136.398H529.406V220.55H554.388V236H487.001ZM578.814 236V120.948H652.611V137.22H596.236V172.393H643.572V187.678H596.236V236H578.814ZM674.243 236V220.55H699.225V136.398H674.571V120.948H741.301V136.398H716.647V220.55H741.63V236H674.243ZM765.398 236V120.948H838.867V136.562H782.82V170.092H833.936V185.542H782.82V220.386H838.867V236H765.398ZM855.239 236V120.948H882.851C901.369 120.948 915.12 126.098 924.105 136.398C933.09 146.588 937.583 160.614 937.583 178.474C937.583 196.335 933.09 210.415 924.105 220.715C915.12 230.905 901.369 236 882.851 236H855.239ZM872.661 219.893H882.194C895.562 219.893 905.204 216.167 911.121 208.716C917.038 201.156 919.996 191.075 919.996 178.474C919.996 165.873 917.038 155.847 911.121 148.396C905.204 140.836 895.562 137.055 882.194 137.055H872.661V219.893Z" fill="black"/>
<path d="M513.51 265.643H512.59L513.449 328.716H513.536C515.644 328.716 517.726 328.785 519.791 328.908C520.936 328.977 522.063 329.065 523.191 329.178C523.478 329.204 523.764 329.23 524.05 329.265C524.822 329.344 525.586 329.431 526.349 329.535L526.74 329.588C527.503 329.684 528.266 329.797 529.021 329.919C529.845 330.05 530.66 330.189 531.468 330.346C532.283 330.503 533.09 330.66 533.888 330.835C534.694 331 535.502 331.184 536.291 331.393C537.089 331.576 537.879 331.777 538.668 332.003C539.283 332.169 539.899 332.343 540.516 332.526C541.115 332.701 541.713 332.884 542.312 333.076C542.433 333.111 542.554 333.154 542.676 333.189C542.754 333.215 542.832 333.242 542.91 333.268C543.231 333.381 543.561 333.486 543.881 333.599L543.937 333.619C544.066 333.664 544.196 333.71 544.332 333.756C544.385 333.773 544.445 333.791 544.497 333.808C544.619 333.852 544.74 333.896 544.853 333.939C544.94 333.965 545.027 333.991 545.105 334.026C545.574 334.192 546.042 334.358 546.502 334.541C546.864 334.671 547.217 334.809 547.57 334.948L547.577 334.951C548.141 335.169 548.705 335.395 549.269 335.631C549.824 335.866 550.379 336.102 550.926 336.346C551.386 336.555 551.854 336.765 552.314 336.974C552.41 337.017 552.505 337.061 552.592 337.113C552.878 337.235 553.156 337.375 553.433 337.506C553.708 337.631 553.974 337.764 554.24 337.898L554.274 337.915C554.509 338.029 554.735 338.142 554.969 338.256C555.203 338.369 555.428 338.491 555.654 338.613C555.74 338.657 555.836 338.709 555.923 338.753C556.426 339.006 556.929 339.276 557.424 339.546C557.502 339.581 557.571 339.624 557.64 339.667L557.641 339.668C558.023 339.878 558.404 340.087 558.786 340.305C558.994 340.418 559.203 340.54 559.402 340.662C559.87 340.924 560.33 341.203 560.789 341.482C561.033 341.63 561.276 341.77 561.518 341.918C561.761 342.066 562.005 342.223 562.247 342.372C562.351 342.441 562.456 342.502 562.559 342.572C562.724 342.677 562.88 342.773 563.046 342.877C563.185 342.973 563.332 343.06 563.47 343.156L563.549 343.209C564.017 343.514 564.485 343.828 564.945 344.142L564.989 344.171C565.347 344.414 565.706 344.658 566.056 344.909C566.212 345.014 566.368 345.127 566.524 345.24C566.819 345.441 567.114 345.659 567.4 345.868C567.409 345.877 567.426 345.877 567.426 345.886C567.556 345.973 567.687 346.069 567.808 346.165C567.833 346.173 567.849 346.189 567.867 346.206L567.869 346.208C568.077 346.357 568.277 346.514 568.476 346.671C568.519 346.697 568.554 346.723 568.597 346.758C569.04 347.081 569.474 347.412 569.899 347.752L569.899 347.752C570.038 347.857 570.177 347.961 570.307 348.075C570.749 348.415 571.182 348.763 571.616 349.121L571.643 349.147C571.894 349.356 572.154 349.566 572.406 349.775C572.64 349.967 572.866 350.167 573.1 350.359C573.559 350.743 574.011 351.135 574.462 351.536C574.514 351.58 574.566 351.632 574.619 351.676C574.653 351.711 574.696 351.746 574.73 351.772C574.931 351.955 575.138 352.129 575.338 352.313C575.408 352.382 575.485 352.443 575.555 352.513L576.205 353.115C576.258 353.158 576.318 353.211 576.37 353.263C576.423 353.315 576.483 353.368 576.536 353.42C576.831 353.69 577.143 353.978 577.438 354.266L577.455 354.283L577.498 354.327C577.836 354.65 578.175 354.981 578.513 355.304C578.626 355.417 578.747 355.53 578.86 355.644C579.033 355.827 579.208 355.992 579.381 356.167L579.546 356.333C579.867 356.655 580.179 356.969 580.491 357.301C580.587 357.396 580.683 357.501 580.777 357.597C581.098 357.937 581.429 358.277 581.758 358.626L581.775 358.643C581.836 358.704 581.897 358.774 581.957 358.835L581.959 358.837C582.601 359.534 583.25 360.24 583.892 360.963L583.989 361.074C584.409 361.553 584.836 362.039 585.254 362.533C585.462 362.768 585.67 363.012 585.879 363.265C586.087 363.509 586.295 363.753 586.495 364.006C587.041 364.652 587.57 365.314 588.1 365.986C588.186 366.09 588.265 366.195 588.342 366.3C588.568 366.588 588.793 366.866 589.019 367.154L589.02 367.156C589.245 367.443 589.47 367.731 589.687 368.017C590.26 368.759 590.824 369.509 591.379 370.276C591.388 370.276 591.388 370.285 591.388 370.285C593.01 372.482 594.493 374.505 595.847 376.354C603.359 352.269 615.869 330.46 632.846 312.243C628.934 308.372 624.856 304.735 620.597 301.334C620.589 301.326 620.571 301.317 620.562 301.308C618.749 299.861 616.91 298.448 615.036 297.088C614.091 296.399 613.144 295.719 612.182 295.056C611.245 294.402 610.299 293.765 609.345 293.137C609.302 293.102 609.258 293.076 609.215 293.05L609.215 293.05C607.766 292.091 606.3 291.158 604.825 290.251C603.342 289.344 601.841 288.455 600.332 287.6C599.724 287.26 599.117 286.92 598.51 286.58C597.955 286.275 597.408 285.978 596.844 285.682C596.029 285.246 595.205 284.819 594.381 284.391L594.38 284.391C594.319 284.356 594.259 284.33 594.19 284.295C594.111 284.26 594.042 284.217 593.964 284.182L593.925 284.162C593.851 284.125 593.778 284.088 593.703 284.051C593.452 283.929 593.209 283.798 592.957 283.676C592.585 283.484 592.211 283.301 591.83 283.118C591.734 283.074 591.63 283.022 591.535 282.97H591.527C591.275 282.847 591.023 282.725 590.772 282.612C590.546 282.499 590.321 282.394 590.086 282.281C588.568 281.566 587.041 280.859 585.497 280.188C585.392 280.144 585.28 280.092 585.167 280.04C585.115 280.022 585.063 279.996 585.011 279.979C584.716 279.848 584.421 279.726 584.126 279.604C584.082 279.586 584.031 279.56 583.988 279.543C583.492 279.325 582.998 279.115 582.495 278.915C582.368 278.855 582.232 278.804 582.097 278.753L582.088 278.749C581.688 278.583 581.281 278.418 580.873 278.261C580.856 278.252 580.847 278.252 580.83 278.243C580.431 278.078 580.04 277.921 579.65 277.772C579.416 277.676 579.172 277.589 578.939 277.493C578.921 277.476 578.913 277.476 578.895 277.476C578.877 277.458 578.86 277.458 578.843 277.458C578.591 277.354 578.331 277.249 578.071 277.162C577.967 277.118 577.863 277.075 577.759 277.04C577.637 276.996 577.507 276.944 577.377 276.9C577.203 276.831 577.03 276.77 576.857 276.709L576.857 276.709C576.596 276.604 576.336 276.508 576.075 276.421C575.963 276.377 575.841 276.334 575.728 276.29C575.642 276.255 575.555 276.229 575.468 276.203C575.269 276.124 575.07 276.054 574.869 275.985C574.705 275.924 574.549 275.871 574.384 275.819C574.315 275.784 574.245 275.767 574.176 275.741C573.707 275.566 573.238 275.409 572.761 275.252C572.64 275.209 572.51 275.165 572.389 275.121C572.336 275.104 572.276 275.087 572.223 275.069C572.163 275.052 572.111 275.026 572.05 275.008C571.928 274.973 571.816 274.93 571.703 274.886H571.677C571.573 274.851 571.46 274.816 571.357 274.781C571.062 274.685 570.775 274.589 570.48 274.494C568.225 273.761 565.951 273.072 563.653 272.427C563.123 272.279 562.585 272.13 562.056 271.991C561.952 271.965 561.849 271.939 561.744 271.904L561.249 271.773C560.877 271.677 560.513 271.581 560.139 271.485C560.079 271.468 560.026 271.459 559.966 271.442C559.792 271.398 559.618 271.354 559.445 271.311C559.359 271.285 559.271 271.267 559.185 271.241C558.716 271.128 558.239 271.005 557.771 270.892C557.164 270.744 556.556 270.596 555.941 270.456C555.464 270.343 554.987 270.238 554.51 270.134L554.509 270.133C554.492 270.125 554.466 270.125 554.449 270.116C554.404 270.107 554.353 270.099 554.301 270.081C554.188 270.064 554.075 270.038 553.962 270.011C553.841 269.985 553.728 269.959 553.607 269.933C553.581 269.924 553.546 269.924 553.52 269.915C553.13 269.828 552.739 269.741 552.348 269.663C552.233 269.638 552.116 269.612 551.999 269.587L551.984 269.584L551.724 269.532C551.655 269.514 551.576 269.506 551.499 269.488C551.351 269.453 551.204 269.427 551.048 269.392L551.042 269.391C550.965 269.374 550.89 269.357 550.813 269.349C550.691 269.314 550.561 269.296 550.432 269.27C550.015 269.183 549.599 269.104 549.174 269.026C548.705 268.93 548.237 268.843 547.76 268.756C546.459 268.512 545.157 268.285 543.838 268.084C543.43 268.023 543.023 267.953 542.615 267.892C541.705 267.753 540.794 267.622 539.873 267.491C538.416 267.291 536.942 267.099 535.467 266.933C534.226 266.794 532.977 266.663 531.727 266.541C530.657 266.437 529.586 266.35 528.516 266.263L528.501 266.262L528.5 266.262C527.685 266.201 526.87 266.14 526.054 266.087C524.622 265.991 523.191 265.913 521.751 265.852L521.748 265.852C521.627 265.843 521.507 265.834 521.387 265.834C519.678 265.756 517.96 265.704 516.234 265.677L513.527 265.651C513.519 265.651 513.51 265.643 513.51 265.643Z" fill="black"/>
<path d="M258.258 594.725C305.511 594.725 345.28 579.648 373.257 551.115L337.463 474.421L337.411 474.77C334.687 491.652 325.612 506.869 311.853 517.63C297.617 528.774 279.373 534.661 259.117 534.661C234.089 534.661 210.448 524.171 192.552 505.126C174.411 485.827 164.417 460.652 164.417 432.12C164.417 403.588 174.056 377.461 191.562 358.539C209.355 339.302 234.262 328.716 261.702 328.716H261.789C263.897 328.716 265.979 328.785 268.044 328.908C269.189 328.977 270.316 329.065 271.444 329.178C271.731 329.204 272.017 329.23 272.303 329.265C273.075 329.344 273.839 329.431 274.602 329.535L274.993 329.588C275.756 329.684 276.519 329.797 277.274 329.919C278.098 330.05 278.913 330.189 279.721 330.346C280.536 330.503 281.342 330.66 282.141 330.835C282.947 331 283.755 331.184 284.544 331.393C285.341 331.576 286.132 331.777 286.921 332.003C287.536 332.169 288.152 332.343 288.769 332.526C289.368 332.701 289.966 332.884 290.565 333.076C290.686 333.111 290.807 333.154 290.929 333.189C291.007 333.215 291.085 333.242 291.163 333.268C291.484 333.381 291.814 333.486 292.134 333.599C292.282 333.651 292.429 333.704 292.585 333.756C292.638 333.773 292.698 333.791 292.75 333.808C292.872 333.852 292.993 333.896 293.106 333.939C293.193 333.965 293.28 333.991 293.358 334.026C293.827 334.192 294.295 334.358 294.755 334.541C295.117 334.671 295.47 334.809 295.823 334.948L295.83 334.951C296.394 335.169 296.958 335.395 297.522 335.631C298.077 335.866 298.632 336.102 299.179 336.346C299.639 336.555 300.107 336.765 300.567 336.974C300.663 337.017 300.757 337.061 300.845 337.113C301.131 337.235 301.409 337.375 301.686 337.506C301.961 337.631 302.226 337.764 302.492 337.898L302.527 337.915C302.762 338.029 302.987 338.142 303.222 338.256C303.455 338.369 303.681 338.491 303.906 338.613L303.907 338.613C303.993 338.657 304.089 338.709 304.175 338.753C304.679 339.006 305.182 339.276 305.677 339.546C305.755 339.581 305.825 339.625 305.894 339.668C306.276 339.878 306.657 340.087 307.039 340.305C307.247 340.418 307.456 340.54 307.655 340.662C308.123 340.924 308.583 341.203 309.042 341.482C309.286 341.63 309.529 341.77 309.771 341.918C310.014 342.066 310.257 342.223 310.5 342.372C310.604 342.441 310.709 342.502 310.812 342.572C310.977 342.677 311.133 342.773 311.298 342.877C311.437 342.973 311.584 343.06 311.723 343.156L311.802 343.209C312.27 343.514 312.738 343.828 313.198 344.142L313.242 344.171C313.6 344.414 313.958 344.658 314.309 344.909C314.465 345.014 314.621 345.127 314.777 345.24C315.041 345.42 315.304 345.613 315.562 345.802L315.653 345.868C315.662 345.877 315.679 345.877 315.679 345.886C315.809 345.973 315.94 346.069 316.061 346.165C316.087 346.174 316.104 346.191 316.122 346.208C316.329 346.357 316.53 346.514 316.729 346.671C316.772 346.697 316.807 346.723 316.85 346.758C317.293 347.081 317.727 347.412 318.152 347.752C318.291 347.857 318.43 347.961 318.559 348.075C319.001 348.415 319.435 348.763 319.869 349.121L319.895 349.147C320.147 349.356 320.407 349.566 320.659 349.775C320.893 349.967 321.119 350.167 321.353 350.359C321.812 350.743 322.263 351.135 322.714 351.536C322.767 351.58 322.819 351.632 322.872 351.676C322.906 351.711 322.949 351.746 322.983 351.772C323.184 351.955 323.391 352.129 323.591 352.313C323.661 352.382 323.738 352.443 323.808 352.513L324.458 353.115C324.511 353.158 324.571 353.211 324.623 353.263C324.676 353.315 324.736 353.368 324.788 353.42C325.083 353.69 325.396 353.978 325.691 354.266L325.708 354.283L325.751 354.327C326.089 354.65 326.428 354.981 326.766 355.304C326.879 355.417 327 355.53 327.113 355.644C327.286 355.827 327.46 355.992 327.634 356.167L327.799 356.333C328.12 356.655 328.432 356.969 328.744 357.301C328.84 357.396 328.935 357.501 329.03 357.597C329.351 357.937 329.681 358.277 330.011 358.626L330.028 358.643C330.089 358.704 330.15 358.774 330.21 358.835L330.213 358.839C330.855 359.535 331.504 360.24 332.145 360.963L332.244 361.076C332.663 361.554 333.089 362.039 333.507 362.533C333.715 362.768 333.923 363.012 334.131 363.265C334.34 363.509 334.548 363.753 334.748 364.006C335.294 364.652 335.823 365.314 336.352 365.986C336.439 366.09 336.518 366.195 336.595 366.3C336.821 366.588 337.046 366.866 337.272 367.154C337.497 367.442 337.723 367.73 337.94 368.017C338.513 368.759 339.077 369.509 339.632 370.276C339.641 370.276 339.641 370.285 339.641 370.285C341.263 372.482 342.746 374.505 344.1 376.354C351.612 352.269 364.122 330.46 381.099 312.243C377.187 308.372 373.109 304.735 368.85 301.334C368.842 301.326 368.823 301.317 368.815 301.308C367.002 299.861 365.163 298.448 363.289 297.088C362.344 296.399 361.397 295.719 360.435 295.056C359.498 294.402 358.552 293.765 357.598 293.137C357.554 293.102 357.511 293.076 357.468 293.05C356.019 292.091 354.553 291.158 353.078 290.251C351.595 289.344 350.094 288.455 348.585 287.6C347.977 287.26 347.37 286.92 346.763 286.58C346.208 286.275 345.661 285.978 345.097 285.682C344.282 285.246 343.458 284.819 342.634 284.392L342.633 284.391C342.572 284.356 342.512 284.33 342.443 284.295C342.364 284.26 342.295 284.217 342.217 284.182C342.13 284.138 342.044 284.094 341.956 284.051C341.705 283.929 341.462 283.798 341.21 283.676C340.838 283.484 340.464 283.301 340.083 283.118C339.987 283.074 339.883 283.022 339.788 282.97H339.78C339.528 282.847 339.276 282.725 339.024 282.612C338.799 282.499 338.573 282.394 338.339 282.281C336.821 281.566 335.294 280.859 333.75 280.188C333.645 280.144 333.532 280.092 333.42 280.04C333.368 280.022 333.316 279.996 333.264 279.979C332.969 279.848 332.674 279.726 332.379 279.604L332.379 279.604C332.335 279.586 332.284 279.56 332.241 279.543C331.745 279.325 331.251 279.115 330.748 278.915C330.621 278.855 330.485 278.804 330.35 278.753L330.341 278.749C329.941 278.583 329.533 278.418 329.126 278.261C329.109 278.252 329.1 278.252 329.082 278.243C328.684 278.078 328.293 277.921 327.902 277.772C327.669 277.676 327.425 277.589 327.192 277.493C327.174 277.476 327.165 277.476 327.148 277.476C327.13 277.458 327.113 277.458 327.096 277.458C326.844 277.354 326.584 277.249 326.324 277.162C326.22 277.118 326.115 277.075 326.012 277.04C325.89 276.996 325.76 276.944 325.63 276.9C325.456 276.831 325.283 276.77 325.11 276.709C324.849 276.604 324.589 276.508 324.328 276.421C324.216 276.377 324.094 276.334 323.981 276.29C323.894 276.255 323.808 276.229 323.721 276.203C323.522 276.124 323.323 276.054 323.122 275.985C322.958 275.924 322.802 275.871 322.637 275.819C322.567 275.784 322.498 275.767 322.429 275.741C321.96 275.566 321.491 275.409 321.014 275.252C320.893 275.209 320.763 275.165 320.642 275.121C320.589 275.104 320.529 275.087 320.476 275.069C320.416 275.052 320.364 275.026 320.303 275.008C320.181 274.973 320.069 274.93 319.956 274.886L319.956 274.886H319.93C319.826 274.851 319.713 274.816 319.61 274.781C319.315 274.685 319.028 274.589 318.733 274.494C316.477 273.761 314.204 273.072 311.906 272.427C311.376 272.279 310.838 272.13 310.309 271.991C310.205 271.965 310.101 271.939 309.997 271.904L309.502 271.773C309.13 271.677 308.765 271.581 308.392 271.485C308.331 271.468 308.279 271.459 308.219 271.442C308.045 271.398 307.871 271.354 307.698 271.311C307.612 271.285 307.524 271.267 307.437 271.241C306.969 271.128 306.492 271.005 306.024 270.892C305.417 270.744 304.809 270.596 304.194 270.456C303.717 270.343 303.24 270.238 302.763 270.134L302.762 270.133C302.745 270.125 302.719 270.125 302.702 270.116L302.683 270.112C302.643 270.105 302.599 270.096 302.554 270.081C302.441 270.064 302.328 270.038 302.215 270.011C302.093 269.985 301.981 269.959 301.86 269.933C301.834 269.924 301.798 269.924 301.773 269.915C301.383 269.828 300.992 269.741 300.601 269.663C300.549 269.651 300.496 269.64 300.444 269.629L300.237 269.584L299.977 269.532C299.908 269.514 299.829 269.506 299.752 269.488C299.604 269.453 299.457 269.427 299.301 269.392L299.295 269.391C299.218 269.374 299.143 269.357 299.066 269.349C298.944 269.314 298.814 269.296 298.684 269.27C298.268 269.183 297.852 269.104 297.427 269.026C296.958 268.93 296.49 268.843 296.012 268.756C294.712 268.512 293.41 268.285 292.091 268.084C291.683 268.023 291.275 267.953 290.868 267.892C289.958 267.753 289.046 267.622 288.126 267.491C286.669 267.291 285.194 267.099 283.72 266.933C282.479 266.794 281.23 266.663 279.98 266.541C278.91 266.437 277.839 266.35 276.769 266.263L276.754 266.262L276.753 266.262C275.938 266.201 275.122 266.14 274.307 266.087C272.875 265.991 271.444 265.913 270.004 265.852L270.001 265.852C269.88 265.843 269.76 265.834 269.64 265.834C267.931 265.756 266.212 265.704 264.487 265.677L261.78 265.651C261.772 265.651 261.762 265.643 261.762 265.643H260.843C214.205 265.643 171.366 282.002 140.222 311.694C108.419 342.023 90.9034 385.86 90.9034 431.693C90.9034 477.526 108.245 519.252 139.736 549.205C170.594 578.558 211.003 594.725 258.258 594.725Z" fill="black"/>
<path d="M775.86 416.59V469.295H843.848V474.431L843.796 474.78C841.072 491.662 831.998 506.879 818.239 517.64C804.003 528.784 785.758 534.67 765.501 534.67C740.473 534.67 716.833 524.18 698.936 505.135C688.5 494.034 680.762 480.744 676.077 466.164C670.898 497.06 659.525 523.962 642.443 545.588C643.649 546.818 644.872 548.021 646.121 549.207C676.979 578.559 719.072 594.726 764.642 594.726C863.089 594.726 924.25 530.1 924.25 426.077V416.59H775.86Z" fill="black"/>
<path d="M523.32 416.59V469.295H591.308V474.431L591.256 474.78C588.532 491.662 579.458 506.879 565.699 517.64C551.463 528.784 533.218 534.67 512.961 534.67C487.934 534.67 464.293 524.18 446.396 505.135C435.96 494.034 428.222 480.744 423.537 466.164C418.358 497.06 406.985 523.962 389.903 545.588C391.11 546.818 392.332 548.021 393.581 549.207C424.439 578.559 466.532 594.726 512.103 594.726C610.549 594.726 671.71 530.1 671.71 426.077V416.59H523.32Z" fill="black"/>
<path d="M269.32 416.59V469.295H337.308V474.431L337.256 474.78C334.532 491.662 325.458 506.879 311.699 517.64C297.463 528.784 279.218 534.67 258.961 534.67C233.934 534.67 210.293 524.18 192.396 505.135C181.96 494.034 174.222 480.744 169.537 466.164C164.358 497.06 152.985 523.962 135.903 545.588C137.11 546.818 138.332 548.021 139.581 549.207C170.439 578.559 212.532 594.726 258.103 594.726C356.549 594.726 417.71 530.1 417.71 426.077V416.59H269.32Z" fill="black"/>
<path d="M906.31 334.523L843.77 367.303C823.955 341.7 798.511 328.724 768.087 328.724C740.647 328.724 715.741 339.311 697.939 358.548C685.55 371.942 677.101 388.955 673.231 407.869H598.824C599.336 403.989 599.969 400.143 600.724 396.35C601.097 394.44 601.513 392.539 601.955 390.655C602.38 388.824 602.84 387.002 603.335 385.197C610.119 360.021 622.516 337.279 639.866 318.539C640.847 317.475 641.853 316.42 642.868 315.383C643.874 314.354 644.89 313.342 645.931 312.339C646.156 312.13 646.382 311.912 646.607 311.694C677.751 282.002 720.589 265.643 767.219 265.643C796.515 265.643 823.426 271.642 847.213 283.467C870.775 295.178 890.633 312.339 906.31 334.523Z" fill="black"/>
<path d="M444.018 358.548C461.82 339.311 486.726 328.724 514.166 328.724L513.298 265.643C466.669 265.643 423.831 282.002 392.687 311.694L392.686 311.694C392.461 311.912 392.235 312.13 392.01 312.339C390.969 313.342 389.953 314.354 388.947 315.383C387.933 316.42 386.926 317.475 385.945 318.539C368.595 337.279 356.199 360.021 349.414 385.197C348.92 387.002 348.459 388.824 348.035 390.655C347.593 392.539 347.176 394.44 346.803 396.35C346.048 400.143 345.415 403.989 344.903 407.869H419.31C423.18 388.955 431.629 371.942 444.018 358.548Z" fill="black"/>
<g clip-path="url(#clip0_2183_1680)">
<path d="M183.495 688.091V651.719H173.202V641.053H205.331V651.722H195.038V688.094H183.497L183.495 688.091Z" fill="black"/>
<path d="M99.1577 664.759C99.1577 650.16 110.324 640.178 124.423 640.178C132.908 640.178 140.581 643.608 145.509 650.971L135.34 656.272C132.595 652.529 129.038 650.534 124.547 650.534C116.624 650.534 111.072 656.709 111.072 664.82C111.072 672.93 117.124 678.982 124.173 678.982C129.975 678.982 134.155 675.489 134.903 670.872V670.808H125.047V661.95H147.818V663.946C147.818 679.293 138.646 688.901 124.05 688.901C110.261 688.901 99.1577 678.982 99.1577 664.759Z" fill="black"/>
<path d="M155.734 688.091V641.053H167.274V688.091H155.734Z" fill="black"/>
<path d="M307.051 688.091V641.053H318.591V688.091H307.051Z" fill="black"/>
<path d="M361.538 641.053H372.831V688.091H363.473L339.892 658.458L340.079 688.091H328.725V641.053H338.333L361.915 670.499L361.541 641.053H361.538Z" fill="black"/>
<path d="M233.291 678.236C226.118 678.236 220.066 672.621 220.066 664.573C220.066 656.963 225.868 650.911 233.418 650.911C237.136 650.911 240.382 652.318 242.743 654.647C243.882 651.01 245.655 647.607 248.012 644.566C243.885 641.811 238.863 640.242 233.478 640.242C219.629 640.242 208.149 650.598 208.149 664.51C208.149 679.11 219.69 688.902 233.291 688.902C238.722 688.902 243.781 687.382 247.931 684.679C245.602 681.641 243.847 678.218 242.723 674.535C240.326 676.854 237.032 678.236 233.291 678.236Z" fill="black"/>
<path d="M274.659 640.242C265.968 640.242 258.211 644.321 253.637 650.798C250.924 654.642 249.33 659.33 249.33 664.51C249.33 669.691 250.919 674.677 253.612 678.516C258.176 685.025 265.918 688.902 274.473 688.902C288.385 688.902 299.865 678.92 299.865 664.634C299.865 650.348 288.448 640.242 274.659 640.242ZM274.473 678.236C267.299 678.236 261.248 672.621 261.248 664.573C261.248 656.963 267.049 650.911 274.599 650.911C282.149 650.911 287.95 656.9 287.95 664.637C287.95 672.373 282.149 678.236 274.475 678.236H274.473Z" fill="black"/>
<path d="M624.467 687.946C616.563 687.946 610.995 683.935 608.421 678.249L614.588 673.64C616.864 678.069 620.156 680.164 624.046 680.164C627.818 680.164 630.031 677.89 630.031 674.597C630.031 671.305 628.357 669.45 622.25 666.816C614.889 663.643 610.519 660.531 610.519 653.647C610.519 646.524 616.444 641.137 624.645 641.137C630.931 641.137 635.42 643.89 638.291 648.14L632.545 653.288C630.689 650.534 628.357 648.918 625.002 648.918C621.83 648.918 619.617 650.894 619.617 653.348C619.617 655.802 621.532 657.298 627.639 659.932C635.658 663.284 639.191 667.115 639.191 674.478C639.191 682.619 632.846 687.946 624.467 687.946Z" fill="black"/>
<path d="M597.334 687.106H588.296V650.293H578.18V641.973H607.391V650.293H597.334V687.106Z" fill="black"/>
<path d="M564.359 672.141L564.121 641.973H572.98V687.106H566.932L540.655 656.997L540.834 687.106H531.974V641.973H538.082L564.359 672.141Z" fill="black"/>
<path d="M527.719 687.106H517.841L514.07 677.349H495.994L491.984 687.106H482.466L502.22 641.973H508.565L527.719 687.106ZM501.74 663.402L499.047 669.926H511.139L508.624 663.402C507.486 660.409 506.348 657.416 505.273 654.423C504.135 657.416 502.938 660.409 501.74 663.402Z" fill="black"/>
<path d="M469.642 668.61L482.931 687.106H472.157L460.843 669.567H459.526V687.106H450.547V641.973H461.381C471.677 641.973 479.041 646.043 479.041 655.8C479.041 661.546 475.928 665.976 469.642 668.61ZM461.741 649.754H459.526V662.504H461.501C466.948 662.504 470.18 660.469 470.18 655.979C470.18 651.67 467.247 649.754 461.741 649.754Z" fill="black"/>
<path d="M421.07 687.946C408.081 687.946 397.666 677.89 397.666 664.721C397.666 651.013 408.321 641.137 421.549 641.137C429.271 641.137 435.676 644.07 440.943 650.894L433.581 655.742C430.468 651.492 426.517 649.337 421.669 649.337C413.109 649.337 406.764 655.982 406.764 664.721C406.764 673.58 413.768 679.985 421.25 679.985C427.775 679.985 432.503 675.675 433.162 670.348V670.288H422.806V662.805H443.038V664.541C443.038 678.728 434.539 687.946 421.07 687.946Z" fill="black"/>
</g>
<path d="M679.765 688.242C676.305 688.242 673.266 687.266 670.649 685.314C668.032 683.318 665.991 680.523 664.527 676.93C663.063 673.337 662.331 669.079 662.331 664.155C662.331 659.32 663.063 655.105 664.527 651.512C665.991 647.919 668.076 645.125 670.782 643.129C673.532 641.088 676.815 640.068 680.63 640.068C685.243 640.068 688.947 641.332 691.742 643.86C694.581 646.389 696.311 649.96 696.932 654.573H689.28C688.836 652.178 687.86 650.27 686.352 648.851C684.888 647.431 682.981 646.722 680.63 646.722C677.036 646.722 674.286 648.274 672.379 651.379C670.471 654.484 669.518 658.743 669.518 664.155C669.518 669.788 670.516 674.113 672.512 677.13C674.552 680.102 677.192 681.588 680.43 681.588C682.604 681.588 684.4 680.945 685.82 679.658C687.239 678.372 688.326 676.731 689.08 674.734C689.834 672.694 690.3 670.542 690.477 668.28H680.696V662.425H697.597V687.443H691.076L690.61 681.189H690.211C689.324 683.229 688.082 684.915 686.485 686.246C684.888 687.576 682.648 688.242 679.765 688.242ZM703.426 687.443V681.322H711.478V662.757C711.478 661.294 710.768 660.562 709.348 660.562H704.092V654.44H712.01C713.829 654.44 715.315 654.972 716.468 656.037C717.621 657.057 718.198 658.499 718.198 660.362V661.161H718.531C719.019 658.676 720.061 656.813 721.658 655.571C723.299 654.285 725.673 653.642 728.778 653.642H733.901V661.094H726.715C724.098 661.094 722.079 662.003 720.66 663.822C719.24 665.641 718.531 667.814 718.531 670.343V681.322H728.778V687.443H703.426ZM753.171 688.242C750.554 688.242 748.358 687.798 746.584 686.911C744.81 685.98 743.479 684.76 742.592 683.251C741.705 681.699 741.261 680.013 741.261 678.194C741.261 674.956 742.436 672.428 744.788 670.609C747.183 668.79 750.554 667.881 754.901 667.881H763.418V667.149C763.418 662.181 761.112 659.697 756.498 659.697C754.591 659.697 752.972 660.118 751.641 660.961C750.355 661.759 749.49 663.068 749.046 664.887H741.993C742.348 661.427 743.834 658.699 746.451 656.702C749.113 654.662 752.462 653.642 756.498 653.642C761.378 653.642 764.927 654.839 767.145 657.235C769.363 659.63 770.472 662.935 770.472 667.149V687.443H764.483L763.884 682.586H763.418C762.442 684.139 761.223 685.469 759.759 686.578C758.295 687.687 756.099 688.242 753.171 688.242ZM754.502 682.32C757.386 682.32 759.537 681.455 760.956 679.725C762.42 677.95 763.219 675.71 763.352 673.004H755.633C753.105 673.004 751.308 673.426 750.244 674.269C749.223 675.067 748.713 676.198 748.713 677.662C748.713 679.126 749.223 680.279 750.244 681.122C751.308 681.921 752.728 682.32 754.502 682.32ZM779.295 687.443V654.44H785.417L786.016 659.364H786.348C787.235 657.767 788.611 656.414 790.474 655.305C792.337 654.196 794.488 653.642 796.928 653.642C800.965 653.642 804.003 654.862 806.044 657.301C808.084 659.741 809.105 663.334 809.105 668.081V687.443H802.051V668.946C802.051 666.195 801.475 664.066 800.321 662.558C799.168 661.05 797.349 660.296 794.865 660.296C792.426 660.296 790.385 661.116 788.744 662.757C787.147 664.399 786.348 666.772 786.348 669.877V687.443H779.295ZM833.565 687.443C830.327 687.443 827.754 686.667 825.846 685.115C823.939 683.518 822.985 680.701 822.985 676.664V660.429H814.668V654.44H819.592C821.854 654.44 823.185 653.331 823.584 651.113L824.582 645.79H830.038V654.44H843.08V660.429H830.038V676.531C830.038 678.261 830.415 679.481 831.169 680.191C831.968 680.856 833.321 681.189 835.228 681.189H842.947V687.443H833.565ZM866.276 688.242C863.082 688.242 860.265 687.532 857.826 686.113C855.386 684.649 853.478 682.63 852.103 680.058C850.728 677.485 850.041 674.49 850.041 671.075C850.041 667.615 850.706 664.576 852.037 661.959C853.412 659.342 855.319 657.301 857.759 655.837C860.243 654.374 863.104 653.642 866.343 653.642C869.536 653.642 872.287 654.374 874.593 655.837C876.9 657.257 878.674 659.164 879.916 661.56C881.203 663.955 881.846 666.595 881.846 669.478C881.846 669.921 881.846 670.409 881.846 670.942C881.846 671.43 881.824 671.984 881.78 672.605H856.961C857.182 675.666 858.18 677.995 859.955 679.592C861.729 681.144 863.814 681.921 866.209 681.921C868.294 681.921 869.936 681.499 871.133 680.656C872.375 679.769 873.285 678.572 873.861 677.063H880.981C880.183 680.213 878.519 682.874 875.991 685.048C873.462 687.177 870.224 688.242 866.276 688.242ZM866.276 659.763C864.102 659.763 862.173 660.429 860.487 661.759C858.801 663.046 857.715 664.865 857.227 667.216H874.793C874.616 664.998 873.751 663.201 872.198 661.826C870.645 660.451 868.671 659.763 866.276 659.763ZM904.177 688.242C900.983 688.242 898.166 687.532 895.727 686.113C893.287 684.649 891.379 682.63 890.004 680.058C888.629 677.485 887.942 674.49 887.942 671.075C887.942 667.615 888.607 664.576 889.938 661.959C891.313 659.342 893.22 657.301 895.66 655.837C898.144 654.374 901.005 653.642 904.244 653.642C907.438 653.642 910.188 654.374 912.494 655.837C914.801 657.257 916.576 659.164 917.818 661.56C919.104 663.955 919.747 666.595 919.747 669.478C919.747 669.921 919.747 670.409 919.747 670.942C919.747 671.43 919.725 671.984 919.681 672.605H894.862C895.083 675.666 896.082 677.995 897.856 679.592C899.63 681.144 901.715 681.921 904.111 681.921C906.195 681.921 907.837 681.499 909.034 680.656C910.277 679.769 911.186 678.572 911.763 677.063H918.882C918.084 680.213 916.42 682.874 913.892 685.048C911.363 687.177 908.125 688.242 904.177 688.242ZM904.177 659.763C902.004 659.763 900.074 660.429 898.388 661.759C896.703 663.046 895.616 664.865 895.128 667.216H912.694C912.517 664.998 911.652 663.201 910.099 661.826C908.547 660.451 906.573 659.763 904.177 659.763Z" fill="black"/>
<defs>
<clipPath id="clip0_2183_1680">
<rect width="540.418" height="49.0951" fill="white" transform="translate(98.9034 640.066)"/>
</clipPath>
</defs>
</svg>

